PathFileType	4	(X/Y/Z)	C:\Users\WrightLab\Desktop\Jo\P5V21.trc
DataRate	CameraRate	NumFrames	NumMarkers	Units	OrigDataRate	OrigDataStartFrame	OrigNumFrames
100.00	100.00	       8	19	mm	100.00	300	       399
Frame#	Time	Headset_Front			Headset_Back			Headset_Left			Headset_Right			Left_Shoulder			Right_Shoulder			Sternum			C7			Left Elbow			Right Elbow			Left Wrist			Right Wrist			Left ASIS			Right ASIS			S2			Left Knee			Right Knee			Left Ankle			Right Ankle			
		X1	Y1	Z1	X2	Y2	Z2	X3	Y3	Z3	X4	Y4	Z4	X5	Y5	Z5	X6	Y6	Z6	X7	Y7	Z7	X8	Y8	Z8	X9	Y9	Z9	X10	Y10	Z10	X11	Y11	Z11	X12	Y12	Z12	X13	Y13	Z13	X14	Y14	Z14	X15	Y15	Z15	X16	Y16	Z16	X17	Y17	Z17	X18	Y18	Z18	X19	Y19	Z19	

300	2.990	-567.72485	1385.73181	42.15540	-513.70990	1683.00952	-48.56114				-650.71405	1493.35144	-19.91820	-287.75858	1513.07007	-166.88733	-661.45203	1396.83044	-144.16228	-449.35501	1275.61121	-129.62209	-508.48358	1521.18506	-282.57831	-273.67236	1367.97388	-104.31871	-781.33429	1151.24927	-76.40553	-141.27618	1285.81775	-225.10043	-801.79095	1005.12109	131.19269	-236.99678	933.69556	-173.96439	-526.35229	892.33496	-155.39639	-358.00275	1011.70129	-412.51236	-175.79199	503.87973	-170.83974	-556.79974	486.59515	-235.72661	-82.02622	107.86442	-313.48856	-451.65112	89.25951	-282.32697	
301	3.000	-568.09668	1385.74084	43.00813	-513.84766	1682.93054	-48.29309				-650.82037	1493.29370	-19.98104	-287.75858	1513.07007	-166.88733	-661.80591	1396.83337	-144.06822	-449.69681	1275.89734	-130.07471	-508.59946	1521.18481	-282.57275	-273.95071	1367.62646	-103.77094	-782.61127	1152.62756	-75.81087	-141.17885	1285.65344	-225.82791	-802.53931	1006.00348	131.00049	-237.87558	933.49390	-174.14873	-526.97571	892.54663	-154.91913	-358.30698	1011.42206	-412.12006	-176.53819	503.81519	-170.52814	-556.77704	486.56180	-235.70488	-82.13130	107.64462	-313.57867	-451.64493	89.27765	-282.61935	
302	3.010	-568.19476	1385.67041	42.69683	-514.01074	1682.79321	-48.32617				-650.99304	1493.01038	-19.64371	-287.75858	1513.07007	-166.88733	-662.05774	1397.00610	-143.91353	-450.14865	1275.87329	-129.63560	-508.80518	1521.11462	-282.41248	-273.75604	1367.89111	-104.32191	-782.89996	1152.85144	-76.04453	-141.85234	1285.76868	-225.60760	-803.42297	1006.91052	131.32475	-238.26897	933.34064	-174.13094	-527.52191	892.94611	-154.14752	-358.82666	1011.35504	-411.90573	-176.89304	503.95840	-170.14868	-556.81073	486.52951	-235.43011	-82.15411	107.98296	-313.86594	-451.68851	89.24407	-282.63275	
303	3.020	-568.21967	1385.65259	42.61771	-514.02307	1682.77502	-48.33316				-652.53528	1492.79297	-19.13943	-288.34964	1512.94299	-166.51428	-662.26154	1397.11780	-144.02167	-450.85062	1276.64844	-128.50668	-509.15619	1521.24329	-282.80692	-274.03799	1367.53333	-103.77169	-783.43713	1152.98462	-76.17565	-141.81297	1285.67810	-226.26727	-803.16473	1007.71692	132.33719	-238.51169	933.06097	-174.17180	-528.01959	893.24738	-154.33926	-359.15128	1011.25104	-411.96170	-176.94974	503.96515	-169.54950	-556.52551	486.03046	-235.54703	-82.23635	107.99695	-313.83582	-451.70813	89.21928	-282.63730	
304	3.030	-568.27051	1385.61597	42.45635	-514.04669	1682.89819	-47.92384				-652.59631	1492.78772	-19.18258	-288.34964	1512.94299	-166.51428	-662.47162	1397.39392	-143.88759	-451.34720	1276.88818	-127.97699	-509.25629	1521.25952	-282.79993	-274.29926	1367.42017	-104.08393	-783.77417	1153.08325	-76.33569	-142.06454	1285.27283	-224.78262	-803.03912	1008.10596	132.40477	-238.99588	932.71411	-173.95691	-528.26276	892.74628	-153.87187	-359.44440	1011.22351	-411.94464	-177.55118	503.78207	-169.24731	-556.06311	485.95621	-235.46428	-82.39573	108.16111	-313.08362	-451.74536	89.20277	-282.63507	
305	3.040	-568.28650	1385.60449	42.40550	-514.02246	1682.92468	-48.26660				-652.65924	1493.26416	-19.69391	-289.23590	1512.85303	-166.73497	-662.75970	1397.67859	-143.75494	-451.84308	1276.56372	-127.91193	-509.35754	1521.15955	-282.86841	-274.56567	1367.41699	-104.05225	-784.28247	1153.22766	-76.49109	-142.02135	1285.02441	-224.75079	-803.56860	1008.99115	132.67918	-238.99120	932.79047	-174.13933	-528.50793	892.91132	-153.18089	-359.99155	1010.87244	-411.79453	-177.59050	503.74951	-169.24771	-556.01294	485.87903	-235.14943	-82.79918	108.53229	-313.13858	-451.76892	89.18864	-282.64581	
306	3.050	-568.29993	1385.59485	42.36292	-513.92554	1683.10864	-48.26705				-652.59131	1493.41614	-19.68969	-289.34744	1512.62903	-167.31985	-663.12592	1397.82495	-143.60039	-452.03345	1276.41003	-128.58678	-509.41351	1521.15076	-282.86691	-274.90915	1367.32715	-103.98985	-784.58783	1153.33337	-76.62316	-142.41362	1284.69116	-223.83699	-803.77997	1009.70959	132.72365	-239.15378	932.50891	-173.92311	-529.03186	892.95422	-152.15825	-360.39984	1010.67676	-411.76553	-177.46283	504.07004	-168.54395	-555.74872	485.54721	-234.72072	-82.87651	108.57036	-313.09323	-451.75903	89.15837	-282.64667	
307	3.060	-568.31061	1385.58716	42.32896	-513.85071	1683.10303	-48.22753				-652.55920	1493.47412	-19.64996	-289.34744	1512.62903	-167.31985	-663.33984	1398.20691	-143.60272	-452.37912	1276.89429	-128.52037	-509.47900	1521.14417	-282.86462	-275.14856	1366.93628	-103.90934	-784.91284	1153.41992	-76.54149	-142.30576	1284.62549	-223.99969	-804.44482	1011.08636	132.44263	-239.23640	932.47290	-173.93523	-529.77051	892.78430	-151.34396	-361.14627	1010.42700	-411.75433	-177.76413	503.98788	-167.66838	-555.56567	485.44009	-234.36330	-83.64182	109.10852	-312.81854	-451.81329	89.10760	-282.36243	
